<svg width="55" height="55" viewBox="0 0 55 55" fill="none" xmlns="http://www.w3.org/2000/svg">
<g clip-path="url(#clip0)">
<path d="M36.2984 38.5453L38.8134 34.4642L43.3522 32.9162L43.855 28.1492L47.2699 24.7874L45.6463 20.275L47.2699 15.7625L43.8552 12.4008L43.3523 7.63383L38.8135 6.08588L36.2985 2.0046L31.5413 2.57898L27.5002 0L23.4591 2.5792L18.702 2.00481L16.1869 6.08599L11.6481 7.63394L11.1453 12.4009L7.73047 15.7627L9.35404 20.2751L7.73047 24.7876L11.1452 28.1493L11.648 32.9163L16.1868 34.4643L18.7019 38.5454L23.4591 37.9712L27.5002 40.5503L31.5413 37.9712L36.2984 38.5453ZM13.5967 20.2751C13.5967 12.6088 19.8338 6.37162 27.5002 6.37162C35.1666 6.37162 41.4037 12.6088 41.4037 20.2751C41.4037 27.9415 35.1666 34.1786 27.5002 34.1786C19.8338 34.1786 13.5967 27.9415 13.5967 20.2751V20.2751Z" fill="#D0021B"/>
<path d="M27.4999 9.59619C21.6115 9.59619 16.821 14.3867 16.821 20.275C16.821 26.1633 21.6115 30.9538 27.4999 30.9538C33.3882 30.9538 38.1787 26.1633 38.1787 20.275C38.1787 14.3867 33.3882 9.59619 27.4999 9.59619V9.59619Z" fill="#D0021B"/>
<path d="M22.6982 41.311L17.0392 41.9942L14.0493 37.1423L13.0329 36.7958L8.64868 50.4992L16.5415 50.0651L22.7167 55L26.3505 43.6421L22.6982 41.311Z" fill="#D0021B"/>
<path d="M40.9509 37.1424L37.9609 41.9942L32.302 41.311L28.6497 43.6421L32.2835 55L38.4587 50.0651L46.3515 50.4992L41.9673 36.7958L40.9509 37.1424Z" fill="#D0021B"/>
</g>
<defs>
<clipPath id="clip0">
<rect width="55" height="55" fill="white"/>
</clipPath>
</defs>
</svg>
