<svg width="55" height="55" viewBox="0 0 55 55" fill="none" xmlns="http://www.w3.org/2000/svg">
<g clip-path="url(#clip0)">
<path d="M41.7747 33.6282C40.5463 33.3303 39.3089 34.098 39.0179 35.3286C38.7245 36.5592 39.4876 37.7944 40.7182 38.0854C47.8359 39.7743 50.4164 42.2722 50.4164 43.5418C50.4164 46.2802 41.2774 50.4166 27.5002 50.4166C13.7252 50.4166 4.58401 46.2802 4.58401 43.5418C4.58401 42.2722 7.16671 39.7743 14.2798 38.0854C15.5127 37.7944 16.2735 36.5592 15.9802 35.3286C15.6892 34.098 14.4517 33.3302 13.2234 33.6282C4.69627 35.6494 0.000732422 39.1694 0.000732422 43.5418C0.000732422 51.0629 13.8376 54.9999 27.5002 54.9999C41.1652 54.9999 54.9997 51.0629 54.9997 43.5418C54.9997 39.1694 50.3041 35.6494 41.7747 33.6282Z" fill="#D0021B"/>
<path d="M27.5011 18.3344C28.766 18.3344 29.7926 17.3078 29.7926 16.0428C29.7926 14.7778 28.766 13.7512 27.5011 13.7512C26.2361 13.7512 25.2095 14.7778 25.2095 16.0428C25.2095 17.3078 26.2361 18.3344 27.5011 18.3344Z" fill="#D0021B"/>
<path d="M24.5176 42.7012L25.4503 44.5666C25.84 45.3434 26.6328 45.8338 27.5013 45.8338C28.3698 45.8338 29.1628 45.3434 29.5523 44.5666L31.5276 40.6158C33.9316 35.8056 36.8969 31.1469 39.7637 26.6415L41.0699 24.5859C42.6878 22.0284 43.5426 19.0745 43.5426 16.0427C43.5426 11.4778 41.5879 7.11447 38.1802 4.07127C34.7749 1.03032 30.194 -0.427043 25.6268 0.109197C18.4952 0.920431 12.6058 6.6632 11.6181 13.7627C11.0338 17.9701 12.0856 22.1478 14.5766 25.5302C18.4632 30.7962 21.4973 36.656 24.5176 42.7012ZM27.5013 9.16791C31.2916 9.16791 34.3762 12.2525 34.3762 16.0428C34.3762 19.8331 31.2916 22.9176 27.5013 22.9176C23.711 22.9176 20.6264 19.8331 20.6264 16.0428C20.6264 12.2525 23.711 9.16791 27.5013 9.16791Z" fill="#D0021B"/>
</g>
<defs>
<clipPath id="clip0">
<rect width="55" height="55" fill="white"/>
</clipPath>
</defs>
</svg>
