<svg width="55" height="55" viewBox="0 0 55 55" fill="none" xmlns="http://www.w3.org/2000/svg">
<g clip-path="url(#clip0)">
<path d="M51.591 20.993C51.5539 20.9503 51.5225 20.9088 51.4787 20.8673L49.5514 19.0073C51.1498 18.6447 52.8706 17.3056 52.8706 15.9316C52.8706 14.331 50.6492 13.763 48.7533 13.763C46.771 13.763 46.5409 15.1212 46.5173 16.0809L41.5447 11.2868C40.5344 10.2866 38.6183 9.49976 37.186 9.49976H27.5011H27.4989H17.8117C16.3806 9.49976 14.4656 10.2866 13.4542 11.2868L8.48269 16.0809C8.45688 15.1212 8.22676 13.763 6.24668 13.763C4.34855 13.763 2.12825 14.331 2.12825 15.9316C2.12825 17.3056 3.85016 18.6447 5.44859 19.0073L3.52127 20.8673C3.47749 20.9088 3.44718 20.9503 3.40902 20.993C1.34699 22.7553 0 26.024 0 28.3958V35.444C0 37.1547 0.674619 38.7071 1.76456 39.8644V42.5976C1.76456 44.1961 3.10258 45.4993 4.74815 45.4993H8.35585C10.0014 45.4993 11.3383 44.1983 11.3383 42.5976V41.8983H27.4989H27.5011H43.6606V42.5976C43.6606 44.1983 44.9963 45.4993 46.6442 45.4993H50.2507C51.8974 45.4993 53.2332 44.1961 53.2332 42.5976V39.8644C54.3243 38.7071 54.9978 37.1547 54.9978 35.444V28.3958C55 26.024 53.653 22.7553 51.591 20.993ZM15.2805 13.4173C15.9798 12.8347 17.2022 12.3924 17.8117 12.3924H27.4989H27.5011H37.1883C37.7978 12.3924 39.0202 12.8347 39.7195 13.4173L46.2401 19.7369H27.5011H27.4989H8.76107L15.2805 13.4173ZM2.23713 27.3295C2.23713 25.5941 3.59535 24.1854 5.27236 24.1854C6.94824 24.1854 12.4249 27.4002 12.4249 29.1356C12.4249 30.8709 6.94824 30.4691 5.27236 30.4691C3.59535 30.4691 2.23713 29.066 2.23713 27.3295ZM11.3394 38.8081H10.7614H10.1833L6.75405 38.8137C5.80218 38.5174 5.13092 38.1716 4.65611 37.8001C4.41589 37.6126 4.23181 37.4173 4.08813 37.2231C3.94332 37.0267 3.83781 36.8336 3.76934 36.6405C3.34279 35.435 4.22395 34.3271 4.22395 34.3271H10.0766L13.9784 38.8058L11.3394 38.8081ZM35.9153 38.8103H27.5011H27.4989H19.0847C17.3302 38.8103 15.9058 37.3859 15.9058 35.6326H27.4989H27.5011H39.0942C39.0942 37.3881 37.6698 38.8103 35.9153 38.8103ZM36.6539 33.4639H27.5011H27.4989H18.3461C16.4378 33.4639 14.8888 31.1111 14.8888 28.2095H27.4989H27.5011H40.1112C40.1112 31.1123 38.5622 33.4639 36.6539 33.4639ZM51.2318 36.6428C51.1622 36.8359 51.0567 37.0289 50.9119 37.2242C50.7693 37.4184 50.5852 37.6138 50.3439 37.8012C49.8702 38.1728 49.1978 38.5207 48.2459 38.8148L44.8167 38.8092H44.2386H43.6606H41.0193L44.9234 34.3305H50.7749C50.7749 34.3293 51.6572 35.435 51.2318 36.6428ZM49.7276 30.4691C48.0529 30.4691 42.5762 30.8687 42.5762 29.1356C42.5762 27.4024 48.0529 24.1854 49.7276 24.1854C51.4046 24.1854 52.7629 25.5941 52.7629 27.3295C52.7629 29.0637 51.4046 30.4691 49.7276 30.4691Z" fill="#D0021B"/>
</g>
<defs>
<clipPath id="clip0">
<rect width="54.9989" height="55" fill="white"/>
</clipPath>
</defs>
</svg>
