<svg width="55" height="55" viewBox="0 0 55 55" fill="none" xmlns="http://www.w3.org/2000/svg">
<g clip-path="url(#clip0)">
<path d="M54.8279 24.4462C54.7411 23.6732 53.8394 23.0916 53.0597 23.0916C50.5399 23.0916 48.3035 21.6127 47.3657 19.3235C46.4083 16.9795 47.026 14.2463 48.9034 12.524C49.4947 11.9833 49.5668 11.0781 49.0711 10.4496C47.781 8.81177 46.3153 7.33207 44.7145 6.04979C44.0883 5.54744 43.168 5.61737 42.6245 6.2189C40.9855 8.03422 38.041 8.70877 35.7657 7.75949C33.3988 6.76359 31.9049 4.36435 32.0516 1.78909C32.0999 0.979666 31.5081 0.276327 30.7015 0.182375C28.6472 -0.0554808 26.5748 -0.0623786 24.5145 0.1662C23.7181 0.254207 23.1268 0.940895 23.1532 1.74009C23.2424 4.29014 21.7315 6.64704 19.3875 7.60727C17.1395 8.52563 14.2156 7.85606 12.5798 6.05669C12.0392 5.46395 11.1351 5.39117 10.5045 5.88282C8.85668 7.17603 7.35795 8.65668 6.05593 10.2812C5.54859 10.9127 5.62351 11.828 6.21981 12.3706C8.13431 14.1043 8.75155 16.861 7.75755 19.2324C6.80851 21.4933 4.46111 22.9496 1.77406 22.9496C0.902085 22.9216 0.28152 23.5074 0.185189 24.3004C-0.0564721 26.3657 -0.0590885 28.4712 0.173534 30.5534C0.260351 31.3298 1.1887 31.9063 1.97695 31.9063C4.37216 31.8454 6.67031 33.3273 7.63577 35.6742C8.59647 38.0183 7.97804 40.7503 6.09756 42.475C5.50934 43.0156 5.43418 43.9187 5.93082 44.5464C7.20787 46.1741 8.67496 47.6547 10.2805 48.9479C10.9108 49.4555 11.8275 49.3844 12.3738 48.7822C14.0193 46.9626 16.9633 46.2892 19.2293 47.2404C21.6031 48.2337 23.0964 50.6327 22.9506 53.2087C22.9027 54.0181 23.496 54.7236 24.2997 54.8154C25.351 54.9383 26.4078 54.9992 27.4679 54.9992C28.474 54.9992 29.4804 54.9443 30.4868 54.8323C31.2841 54.7442 31.8744 54.0568 31.8475 53.2574C31.7555 50.7086 33.2697 48.3514 35.6109 47.3931C37.8738 46.4688 40.7847 47.1452 42.4214 48.942C42.9649 49.5336 43.8635 49.6054 44.4967 49.1156C46.1417 47.8257 47.6376 46.3458 48.9453 44.717C49.4531 44.0867 49.381 43.1702 48.7814 42.6267C46.8674 40.8942 46.2468 38.1362 47.2408 35.7672C48.1751 33.5368 50.4352 32.0393 52.8661 32.0393L53.2062 32.0483C53.9954 32.1123 54.7206 31.5046 54.816 30.6995C55.0589 28.6323 55.0615 26.5291 54.8279 24.4462ZM27.501 43.3534C18.7448 43.3534 11.647 36.2555 11.647 27.4996C11.647 18.7437 18.745 11.6458 27.501 11.6458C36.2569 11.6458 43.355 18.7437 43.355 27.4996C43.355 30.4716 42.5356 33.2514 41.1125 35.6285L34.1704 28.6862C34.673 27.5012 34.9385 26.2166 34.9382 24.8908C34.9382 22.2946 33.9271 19.854 32.0911 18.0184C30.2556 16.1829 27.8149 15.172 25.2192 15.172C24.353 15.172 23.4907 15.2871 22.6566 15.5143C22.2912 15.614 21.9925 15.9151 21.8952 16.2811C21.7958 16.6555 21.9078 17.0392 22.2004 17.332C22.2004 17.332 25.6276 20.7856 26.7743 21.9321C26.8944 22.0522 26.8942 22.3388 26.8773 22.4421L26.8666 22.5175C26.751 23.7781 26.5281 25.2913 26.3443 25.8729C26.3195 25.8974 26.2962 25.9181 26.271 25.9433C26.2446 25.9697 26.2204 25.9951 26.1949 26.0213C25.6057 26.2104 24.0692 26.4359 22.7886 26.5505L22.7888 26.5436L22.7313 26.5582C22.721 26.5593 22.702 26.5608 22.6768 26.5608C22.5384 26.5608 22.3347 26.522 22.1497 26.3372C20.9561 25.1436 17.6633 21.8743 17.6633 21.8743C17.3679 21.5798 17.0648 21.518 16.8629 21.518C16.3922 21.518 15.9707 21.8581 15.838 22.346C14.9315 25.7004 15.8924 29.3087 18.3464 31.7629C20.1824 33.5987 22.6233 34.6096 25.2195 34.6096C26.5453 34.6096 27.8299 34.3443 29.0147 33.8418L36.0321 40.8592C33.5684 42.4357 30.6428 43.3534 27.501 43.3534Z" fill="#D0021B"/>
</g>
<defs>
<clipPath id="clip0">
<rect width="55" height="55" fill="white"/>
</clipPath>
</defs>
</svg>
